{
    "asset" : {
        "generator" : "Khronos glTF Blender I/O v1.2.75",
        "version" : "2.0"
    },
    "scene" : 0,
    "scenes" : [
        {
            "name" : "Scene",
            "nodes" : [
                0,
                1
            ]
        }
    ],
    "nodes" : [
        {
            "mesh" : 0,
            "name" : "Cylinder"
        },
        {
            "mesh" : 1,
            "name" : "Cylinder.001"
        }
    ],
    "materials" : [
        {
            "doubleSided" : true,
            "emissiveFactor" : [
                0,
                0,
                0
            ],
            "name" : "Material.001",
            "pbrMetallicRoughness" : {
                "baseColorTexture" : {
                    "index" : 0,
                    "texCoord" : 0
                },
                "metallicFactor" : 0,
                "roughnessFactor" : 0.5
            }
        },
        {
            "doubleSided" : true,
            "emissiveFactor" : [
                0,
                0,
                0
            ],
            "name" : "Material",
            "pbrMetallicRoughness" : {
                "baseColorTexture" : {
                    "index" : 1,
                    "texCoord" : 0
                },
                "metallicFactor" : 0,
                "roughnessFactor" : 0.5
            }
        }
    ],
    "meshes" : [
        {
            "name" : "Cylinder",
            "primitives" : [
                {
                    "attributes" : {
                        "POSITION" : 0,
                        "NORMAL" : 1,
                        "TEXCOORD_0" : 2
                    },
                    "indices" : 3,
                    "material" : 0
                }
            ]
        },
        {
            "name" : "Cylinder.001",
            "primitives" : [
                {
                    "attributes" : {
                        "POSITION" : 4,
                        "NORMAL" : 5,
                        "TEXCOORD_0" : 6
                    },
                    "indices" : 7,
                    "material" : 1
                }
            ]
        }
    ],
    "textures" : [
        {
            "source" : 0
        },
        {
            "source" : 1
        }
    ],
    "images" : [
        {
            "bufferView" : 4,
            "mimeType" : "image/png",
            "name" : "base"
        },
        {
            "bufferView" : 9,
            "mimeType" : "image/png",
            "name" : "cara_template2"
        }
    ],
    "accessors" : [
        {
            "bufferView" : 0,
            "componentType" : 5126,
            "count" : 3482,
            "max" : [
                0.9744329452514648,
                2.560171365737915,
                1.6500368118286133
            ],
            "min" : [
                -0.9744656085968018,
                0.0373661033809185,
                -0.9744290709495544
            ],
            "type" : "VEC3"
        },
        {
            "bufferView" : 1,
            "componentType" : 5126,
            "count" : 3482,
            "type" : "VEC3"
        },
        {
            "bufferView" : 2,
            "componentType" : 5126,
            "count" : 3482,
            "type" : "VEC2"
        },
        {
            "bufferView" : 3,
            "componentType" : 5123,
            "count" : 16164,
            "type" : "SCALAR"
        },
        {
            "bufferView" : 5,
            "componentType" : 5126,
            "count" : 1613,
            "max" : [
                0.9744330644607544,
                2.487981081008911,
                0.9424722194671631
            ],
            "min" : [
                -0.9744656085968018,
                0.09011777490377426,
                -0.9744290709495544
            ],
            "type" : "VEC3"
        },
        {
            "bufferView" : 6,
            "componentType" : 5126,
            "count" : 1613,
            "type" : "VEC3"
        },
        {
            "bufferView" : 7,
            "componentType" : 5126,
            "count" : 1613,
            "type" : "VEC2"
        },
        {
            "bufferView" : 8,
            "componentType" : 5123,
            "count" : 8700,
            "type" : "SCALAR"
        }
    ],
    "bufferViews" : [
        {
            "buffer" : 0,
            "byteLength" : 41784,
            "byteOffset" : 0
        },
        {
            "buffer" : 0,
            "byteLength" : 41784,
            "byteOffset" : 41784
        },
        {
            "buffer" : 0,
            "byteLength" : 27856,
            "byteOffset" : 83568
        },
        {
            "buffer" : 0,
            "byteLength" : 32328,
            "byteOffset" : 111424
        },
        {
            "buffer" : 0,
            "byteLength" : 46933,
            "byteOffset" : 143752
        },
        {
            "buffer" : 0,
            "byteLength" : 19356,
            "byteOffset" : 190688
        },
        {
            "buffer" : 0,
            "byteLength" : 19356,
            "byteOffset" : 210044
        },
        {
            "buffer" : 0,
            "byteLength" : 12904,
            "byteOffset" : 229400
        },
        {
            "buffer" : 0,
            "byteLength" : 17400,
            "byteOffset" : 242304
        },
        {
            "buffer" : 0,
            "byteLength" : 26231,
            "byteOffset" : 259704
        }
    ],
    "buffers" : [
        {
            "byteLength" : 285936,
            "uri" : "data:application/octet-stream;base64,"
        }
    ]
}
